<svg xmlns="http://www.w3.org/2000/svg" viewBox="0 0 400 400" style="display: none;">
  <!-- Briefcase — Anos de especialidade -->
  <symbol id="briefcase" viewBox="0 0 24 24">
    <path d="M10 2h4v2h-4V2zm0 0a2 2 0 0 0-2 2v2H4a2 2 0 0 0-2 2v10a2 2 0 0 0 2 2h16a2 2 0 0 0 2-2V8a2 2 0 0 0-2-2h-4V4a2 2 0 0 0-2-2zm-6 6h12v10H4V8z" fill="currentColor"/>
  </symbol>

  <!-- People — Clientes conquistados -->
  <symbol id="people" viewBox="0 0 24 24">
    <path d="M9 12a4 4 0 1 0 0-8 4 4 0 0 0 0 8zm0 2c2.67 0 8 1.34 8 4v2H1v-2c0-2.66 5.33-4 8-4zm7-2a3 3 0 1 0 0-6 3 3 0 0 0 0 6zm1 1h-2v2h2v-2zm0 3c.83.84 1.5 1.86 1.5 3v1h3v-1c0-1.54 2.5-2.5 3.5-2.5s3 .96 3 2.5v1h3v-1c0-1.14.67-2.16 1.5-3" fill="currentColor"/>
  </symbol>

  <!-- Checkmark — Taxa de sucesso -->
  <symbol id="checkmark" viewBox="0 0 24 24">
    <path d="M9 16.17L4.83 12l-1.42 1.41L9 19 21 7l-1.41-1.41L9 16.17z" fill="currentColor"/>
  </symbol>

  <!-- Health — Auxílio-Doença -->
  <symbol id="health" viewBox="0 0 24 24">
    <path d="M12 2C6.48 2 2 6.48 2 12s4.48 10 10 10 10-4.48 10-10S17.52 2 12 2zm1 15h-2v-2h2v2zm0-4h-2V7h2v6z" fill="currentColor"/>
  </symbol>

  <!-- Wheelchair — Pessoa com Deficiência -->
  <symbol id="wheelchair" viewBox="0 0 24 24">
    <path d="M8 2a2 2 0 0 0-2 2 2 2 0 0 0 2 2 2 2 0 0 0 2-2 2 2 0 0 0-2-2zm9.5 6c-.83 0-1.5.67-1.5 1.5S16.67 11 17.5 11 19 10.33 19 9.5 18.33 8 17.5 8zm.5 5v5l-3 3h-2v-3H9v3H7l-3-3V9h2V8h7v1h2l3 4z" fill="currentColor"/>
  </symbol>

  <!-- Refresh — Benefício Negado -->
  <symbol id="refresh" viewBox="0 0 24 24">
    <path d="M23 4v6h-6M1 20v-6h6M3.51 9a9 9 0 0 1 14.85-3.36M20.49 15a9 9 0 0 1-14.85 3.36" fill="none" stroke="currentColor" stroke-width="2" stroke-linecap="round" stroke-linejoin="round"/>
  </symbol>

  <!-- Document — CNIS -->
  <symbol id="document" viewBox="0 0 24 24">
    <path d="M13 2H6a2 2 0 0 0-2 2v16a2 2 0 0 0 2 2h12a2 2 0 0 0 2-2V9z" fill="none" stroke="currentColor" stroke-width="2" stroke-linejoin="round"/>
    <polyline points="13 2 13 9 20 9" fill="none" stroke="currentColor" stroke-width="2" stroke-linejoin="round"/>
    <line x1="9" y1="15" x2="15" y2="15" stroke="currentColor" stroke-width="2" stroke-linecap="round"/>
    <line x1="9" y1="11" x2="15" y2="11" stroke="currentColor" stroke-width="2" stroke-linecap="round"/>
  </symbol>

  <!-- Chart — Planejamento -->
  <symbol id="chart" viewBox="0 0 24 24">
    <path d="M3 3v18h18" fill="none" stroke="currentColor" stroke-width="2" stroke-linecap="round" stroke-linejoin="round"/>
    <polyline points="21 11 17 7 13 11 9 7 5 11" fill="none" stroke="currentColor" stroke-width="2" stroke-linecap="round" stroke-linejoin="round"/>
  </symbol>
</svg>
