<svg xmlns="http://www.w3.org/2000/svg" viewBox="0 0 400 400">
  <!-- Ícone 1: Briefcase (Anos) -->
  <symbol id="briefcase" viewBox="0 0 24 24">
    <path d="M20 6h-8V4c0-1.1-.9-2-2-2s-2 .9-2 2v2H4c-1.1 0-2 .9-2 2v12c0 1.1.9 2 2 2h16c1.1 0 2-.9 2-2V8c0-1.1-.9-2-2-2zm-10-2c.6 0 1 .4 1 1s-.4 1-1 1-1-.4-1-1 .4-1 1-1zm10 16H4V8h16v12z" fill="currentColor"/>
  </symbol>

  <!-- Ícone 2: People (Clientes) -->
  <symbol id="people" viewBox="0 0 24 24">
    <path d="M16 11c1.66 0 2.99-1.34 2.99-3S17.66 5 16 5c-1.66 0-3 1.34-3 3s1.34 3 3 3zm-8 0c1.66 0 2.99-1.34 2.99-3S9.66 5 8 5C6.34 5 5 6.34 5 8s1.34 3 3 3zm0 2c-2.33 0-7 1.17-7 3.5V19h14v-2.5c0-2.33-4.67-3.5-7-3.5zm8 0c-.29 0-.62.02-.97.05 1.16.84 1.97 1.97 1.97 3.45V19h6v-2.5c0-2.33-4.67-3.5-7-3.5z" fill="currentColor"/>
  </symbol>

  <!-- Ícone 3: Checkmark (Taxa Sucesso) -->
  <symbol id="checkmark" viewBox="0 0 24 24">
    <path d="M9 16.17L4.83 12l-1.42 1.41L9 19 21 7l-1.41-1.41L9 16.17z" fill="currentColor"/>
  </symbol>

  <!-- Ícone 4: Health (Auxílio-Doença) -->
  <symbol id="health" viewBox="0 0 24 24">
    <path d="M19 3H5c-1.1 0-2 .9-2 2v14c0 1.1.9 2 2 2h14c1.1 0 2-.9 2-2V5c0-1.1-.9-2-2-2zm-5 11h-2v2h-2v-2h-2v-2h2v-2h2v2h2v2z" fill="currentColor"/>
  </symbol>

  <!-- Ícone 5: Wheelchair (Pessoa com Deficiência) -->
  <symbol id="wheelchair" viewBox="0 0 24 24">
    <path d="M20 2H4c-1.1 0-2 .9-2 2v14c0 1.1.9 2 2 2h14l4 4v-4h2V4c0-1.1-.9-2-2-2zm-7 19c-1.66 0-3-1.34-3-3s1.34-3 3-3 3 1.34 3 3-1.34 3-3 3z" fill="currentColor"/>
  </symbol>

  <!-- Ícone 6: Refresh (Benefício Negado) -->
  <symbol id="refresh" viewBox="0 0 24 24">
    <path d="M1 4v6h6M23 20v-6h-6M20.3 5.51C18.55 3.7 16.1 2.5 13.5 2.5c-4.13 0-7.65 2.49-8.9 6H3.9c1.4-4.44 5.96-7.5 11.1-7.5 2.85 0 5.46 1.1 7.44 2.9l2.85-2.9V5.5zm-17.6 13c1.76 1.81 4.2 2.99 6.8 2.99 4.13 0 7.65-2.49 8.9-6h1.7c-1.4 4.44-5.96 7.5-11.1 7.5-2.85 0-5.46-1.1-7.44-2.9l-2.85 2.9V18.5h6z" fill="currentColor" stroke="currentColor" stroke-width="0.5"/>
  </symbol>

  <!-- Ícone 7: Document (CNIS) -->
  <symbol id="document" viewBox="0 0 24 24">
    <path d="M14 2H6c-1.1 0-2 .9-2 2v16c0 1.1.9 2 2 2h12c1.1 0 2-.9 2-2V8l-6-6zm0 18H6V4h7v5h1v11z" fill="currentColor"/>
  </symbol>

  <!-- Ícone 8: Chart (Planejamento) -->
  <symbol id="chart" viewBox="0 0 24 24">
    <path d="M5 9.2h3V19H5zM10.6 5h2.8v14h-2.8zm5.6 8H19v6h-2.8z" fill="currentColor"/>
  </symbol>
</svg>
